<svg width="20" height="17" viewBox="0 0 20 17" fill="none" xmlns="http://www.w3.org/2000/svg">
<path fill-rule="evenodd" clip-rule="evenodd" d="M19.846 7.82736C19.8673 7.89538 19.8886 7.96349 19.9028 8.03424C19.9648 8.34724 19.9998 8.66924 19.9998 9.00024C19.9998 9.30824 19.9638 9.61124 19.9078 9.91024C19.8954 9.9784 19.8788 10.0437 19.8621 10.1091C19.8545 10.1387 19.847 10.1683 19.8398 10.1982C19.7898 10.3972 19.7308 10.5922 19.6578 10.7832C19.6198 10.8822 19.5808 10.9792 19.5368 11.0752C19.4498 11.2652 19.3488 11.4472 19.2378 11.6262C19.2206 11.654 19.2041 11.6822 19.1877 11.7103C19.1604 11.7573 19.1331 11.8042 19.1018 11.8492C19.0927 11.8622 19.0849 11.8757 19.0772 11.889C19.0689 11.9034 19.0607 11.9177 19.0508 11.9312C19.0431 11.9423 19.0323 11.9494 19.0217 11.9563C19.0131 11.962 19.0045 11.9676 18.9978 11.9752C18.0858 13.1972 16.6418 14.0002 14.9998 14.0002H11.9998V12.7332C12.3008 12.9072 12.6428 13.0002 12.9998 13.0002C13.5338 13.0002 14.0358 12.7922 14.4138 12.4142C15.1938 11.6352 15.1938 10.3652 14.4138 9.58624L11.4138 6.58624C11.0378 6.20924 10.5358 6.00124 10.0018 6.00124C9.4828 6.00124 8.9898 6.19824 8.6138 6.55724L5.6108 9.45724C4.8178 10.2232 4.7958 11.4922 5.5618 12.2852C5.9378 12.6742 6.4618 12.8972 7.0018 12.8972C7.3568 12.8972 7.6988 12.8042 7.9998 12.6302V14.0002H4.9998C3.3578 14.0002 1.9138 13.1972 1.0028 11.9752C0.995793 11.9678 0.98725 11.9623 0.978684 11.9567C0.967695 11.9496 0.956669 11.9425 0.948802 11.9312C0.938226 11.9168 0.929509 11.9014 0.920754 11.8859C0.91378 11.8736 0.906782 11.8612 0.898802 11.8492C0.866883 11.8033 0.838632 11.7553 0.810406 11.7073C0.794417 11.6802 0.778436 11.653 0.761802 11.6262C0.651802 11.4472 0.549802 11.2652 0.462802 11.0752C0.420216 10.9823 0.383251 10.8885 0.345559 10.7928L0.341802 10.7832C0.269802 10.5922 0.209802 10.3972 0.160802 10.1982C0.154475 10.1729 0.14794 10.1478 0.141416 10.1228C0.123192 10.0528 0.105057 9.98315 0.0918016 9.91024C0.0368016 9.61124 -0.000198364 9.30824 -0.000198364 9.00024C-0.000198364 8.66924 0.0358016 8.34724 0.0968016 8.03424C0.111376 7.96137 0.133578 7.89132 0.155777 7.82127C0.168612 7.78077 0.181445 7.74028 0.192802 7.69924C0.196982 7.68389 0.201149 7.66853 0.205316 7.65317C0.252989 7.47745 0.30067 7.30169 0.367802 7.13524C0.404023 7.04469 0.448493 6.95996 0.4931 6.87497C0.512531 6.83794 0.531989 6.80087 0.550802 6.76324C0.557201 6.75053 0.56358 6.73783 0.56995 6.72514C0.640226 6.5852 0.709448 6.44736 0.793802 6.31624C0.857573 6.21534 0.929815 6.12226 1.00211 6.0291C1.01938 6.00686 1.03665 5.98461 1.0538 5.96224L1.05735 5.95769C1.15414 5.83323 1.25012 5.70983 1.3578 5.59424C1.45428 5.4902 1.55791 5.39689 1.66278 5.30247C1.66878 5.29707 1.67479 5.29166 1.6808 5.28624C1.7988 5.18024 1.9188 5.07824 2.0468 4.98424C2.1658 4.89624 2.2878 4.81624 2.4148 4.74024C2.5548 4.65424 2.6978 4.57724 2.8458 4.50624C2.9758 4.44324 3.1058 4.38624 3.2418 4.33524C3.4038 4.27324 3.5708 4.22424 3.7408 4.18024C3.8758 4.14424 4.0078 4.10924 4.1478 4.08624C4.17422 4.0814 4.19987 4.07442 4.22551 4.06745C4.25809 4.05858 4.29067 4.04972 4.3248 4.04524C5.1458 1.66124 7.4198 0.000244141 9.9998 0.000244141C12.5808 0.000244141 14.8548 1.66124 15.6748 4.04524C15.709 4.04973 15.742 4.05862 15.7749 4.0675C15.8007 4.07446 15.8264 4.08141 15.8528 4.08624C15.9918 4.10924 16.1248 4.14424 16.2588 4.18024C16.4288 4.22424 16.5958 4.27324 16.7578 4.33524C16.8938 4.38624 17.0248 4.44324 17.1538 4.50624C17.3018 4.57724 17.4448 4.65424 17.5848 4.74024C17.7118 4.81624 17.8348 4.89624 17.9538 4.98424C18.0808 5.07824 18.2008 5.18024 18.3188 5.28624C18.4308 5.38624 18.5398 5.48424 18.6428 5.59424C18.7518 5.71124 18.8488 5.83624 18.9458 5.96224C18.9585 5.9786 18.9712 5.99489 18.9839 6.01117C19.0612 6.11034 19.1381 6.20887 19.2068 6.31624C19.2899 6.44684 19.3588 6.58411 19.4288 6.72348C19.4355 6.73672 19.4421 6.74997 19.4488 6.76324C19.4676 6.80087 19.4871 6.83794 19.5065 6.87497C19.5511 6.95996 19.5956 7.04469 19.6318 7.13524C19.7001 7.3022 19.7479 7.47851 19.7957 7.65476C19.7997 7.66959 19.8038 7.68442 19.8078 7.69924C19.8193 7.74233 19.8327 7.78483 19.846 7.82736ZM9.305 7.28004C9.699 6.90404 10.322 6.90704 10.707 7.29304L13.707 10.293C14.098 10.684 14.098 11.316 13.707 11.707C13.512 11.902 13.256 12 13 12C12.744 12 12.488 11.902 12.293 11.707L11 10.414V16C11 16.553 10.552 17 10 17C9.448 17 9 16.553 9 16V10.356L7.695 11.616C7.298 12.001 6.665 11.988 6.281 11.591C5.897 11.193 5.908 10.561 6.305 10.177L9.305 7.28004Z" fill="white"/>
</svg>
